<svg width="314" height="286" viewBox="0 0 314 286" fill="none" xmlns="http://www.w3.org/2000/svg">
<path d="M0 272.837V0H107.149C169.401 0 204.866 35.0467 204.866 88.9358C204.866 126.244 187.7 153.377 156.574 166.566L214.676 272.837H152.046L99.9808 175.987H56.5929V272.837H0ZM56.5929 130.012H96.5852C130.164 130.012 146.387 116.069 146.387 88.9358C146.387 61.426 130.164 46.3521 96.5852 46.3521H56.5929V130.012Z" fill="#252525"/>
<path d="M275.762 0.83645C286.593 0.83645 295.641 4.59641 302.905 12.1163C310.302 19.6363 314 28.5414 314 38.8319C314 49.2542 310.302 58.2254 302.905 65.7453C295.641 73.2652 286.593 77.0252 275.762 77.0252C265.064 77.0252 256.016 73.2652 248.619 65.7453C241.223 58.2254 237.524 49.2542 237.524 38.8319C237.524 28.5414 241.223 19.6363 248.619 12.1163C256.016 4.59641 265.064 0.83645 275.762 0.83645ZM275.762 136.591C286.725 136.591 295.839 140.219 303.103 147.475C310.368 154.731 314 163.702 314 174.388C314 180.853 312.877 187.515 310.632 194.376C308.387 201.104 305.018 209.547 300.528 219.706L271.404 286H234.552L253.969 205.656C243.006 198.531 237.524 188.043 237.524 174.191C237.524 163.636 241.157 154.731 248.421 147.475C255.818 140.219 264.932 136.591 275.762 136.591Z" fill="#252525"/>
</svg>
