<svg width="500" height="500" viewBox="0 0 500 500" fill="none" xmlns="http://www.w3.org/2000/svg">
<path d="M93 379.837V107H200.149C262.401 107 297.866 142.047 297.866 195.936C297.866 233.244 280.7 260.377 249.574 273.566L307.676 379.837H245.046L192.981 282.987H149.593V379.837H93ZM149.593 237.012H189.585C223.164 237.012 239.387 223.069 239.387 195.936C239.387 168.426 223.164 153.352 189.585 153.352H149.593V237.012Z" fill="white"/>
<path d="M368.762 107.836C379.593 107.836 388.641 111.596 395.905 119.116C403.302 126.636 407 135.541 407 145.832C407 156.254 403.302 165.225 395.905 172.745C388.641 180.265 379.593 184.025 368.762 184.025C358.064 184.025 349.016 180.265 341.619 172.745C334.223 165.225 330.524 156.254 330.524 145.832C330.524 135.541 334.223 126.636 341.619 119.116C349.016 111.596 358.064 107.836 368.762 107.836ZM368.762 243.591C379.725 243.591 388.839 247.219 396.103 254.475C403.368 261.731 407 270.702 407 281.388C407 287.853 405.877 294.515 403.632 301.376C401.387 308.104 398.018 316.547 393.528 326.706L364.404 393H327.552L346.969 312.656C336.006 305.531 330.524 295.043 330.524 281.191C330.524 270.636 334.157 261.731 341.421 254.475C348.818 247.219 357.932 243.591 368.762 243.591Z" fill="white"/>
</svg>
